<svg xmlns="http://www.w3.org/2000/svg" xmlns:xlink="http://www.w3.org/1999/xlink" width="500" zoomAndPan="magnify" viewBox="0 0 375 374.999991" height="500" preserveAspectRatio="xMidYMid meet" version="1.0"><defs><clipPath id="6d2b844f36"><path d="M 149 48.515625 L 314.90625 48.515625 L 314.90625 327 L 149 327 Z M 149 48.515625 " clip-rule="nonzero"/></clipPath><clipPath id="1a1e4dcbf5"><path d="M 149.40625 297.03125 L 171.140625 232.222656 L 172.328125 230.644531 L 215.664062 100.609375 L 259 230.644531 L 259.386719 232.222656 L 284.847656 307.769531 C 286.164062 311.207031 286.035156 314.453125 284.460938 317.507812 C 282.886719 320.5625 280.347656 322.621094 276.90625 323.679688 L 266.167969 326.863281 L 314.261719 326.863281 L 307.511719 324.871094 C 302.207031 323.554688 297.640625 321.046875 293.785156 317.316406 C 289.925781 313.585938 287.097656 309.117188 285.230469 303.8125 L 199.75 48.527344 L 197.757812 48.527344 L 149.40625 193.386719 Z M 149.40625 297.03125 " clip-rule="nonzero"/></clipPath><clipPath id="17d1b99f81"><path d="M 0.28125 0.515625 L 165.398438 0.515625 L 165.398438 278.878906 L 0.28125 278.878906 Z M 0.28125 0.515625 " clip-rule="nonzero"/></clipPath><clipPath id="ba9e9406ba"><path d="M 0.40625 249.03125 L 22.140625 184.222656 L 23.328125 182.644531 L 66.664062 52.609375 L 110 182.644531 L 110.386719 184.222656 L 135.847656 259.769531 C 137.164062 263.207031 137.035156 266.453125 135.460938 269.507812 C 133.886719 272.5625 131.347656 274.621094 127.90625 275.679688 L 117.167969 278.863281 L 165.261719 278.863281 L 158.511719 276.871094 C 153.207031 275.554688 148.640625 273.046875 144.785156 269.316406 C 140.925781 265.585938 138.097656 261.117188 136.230469 255.8125 L 50.75 0.527344 L 48.757812 0.527344 L 0.40625 145.386719 Z M 0.40625 249.03125 " clip-rule="nonzero"/></clipPath><clipPath id="3f99ea5de2"><rect x="0" width="166" y="0" height="279"/></clipPath><clipPath id="fd3ba2c8ff"><path d="M 83 48 L 164.828125 48 L 164.828125 327 L 83 327 Z M 83 48 " clip-rule="nonzero"/></clipPath><clipPath id="40587f6ad8"><path d="M 102.535156 317.125 C 99.996094 320.433594 96.621094 322.75 92.410156 324.066406 L 83.246094 326.863281 L 164.355469 326.863281 L 155.226562 324.066406 C 153.265625 323.457031 151.53125 322.621094 149.953125 321.589844 C 148.089844 320.371094 146.449219 318.921875 145.101562 317.125 C 142.59375 313.8125 141.339844 309.890625 141.339844 305.390625 L 141.339844 69.617188 C 141.339844 65.117188 142.59375 61.195312 145.101562 57.882812 C 147.609375 54.570312 150.984375 52.257812 155.226562 50.90625 L 164.355469 48.140625 L 83.246094 48.140625 L 92.410156 50.90625 C 96.621094 52.257812 99.996094 54.570312 102.535156 57.882812 C 105.074219 61.195312 106.296875 65.117188 106.296875 69.617188 L 106.296875 305.390625 C 106.296875 309.890625 105.042969 313.8125 102.535156 317.125 " clip-rule="nonzero"/></clipPath><clipPath id="e26f479a34"><path d="M 0.0390625 0 L 81.398438 0 L 81.398438 278.878906 L 0.0390625 278.878906 Z M 0.0390625 0 " clip-rule="nonzero"/></clipPath><clipPath id="8fd70f7174"><path d="M 19.535156 269.125 C 16.996094 272.433594 13.621094 274.75 9.410156 276.066406 L 0.246094 278.863281 L 81.355469 278.863281 L 72.226562 276.066406 C 70.265625 275.457031 68.53125 274.621094 66.953125 273.589844 C 65.089844 272.371094 63.449219 270.921875 62.101562 269.125 C 59.59375 265.8125 58.339844 261.890625 58.339844 257.390625 L 58.339844 21.617188 C 58.339844 17.117188 59.59375 13.195312 62.101562 9.882812 C 64.609375 6.570312 67.984375 4.257812 72.226562 2.90625 L 81.355469 0.140625 L 0.246094 0.140625 L 9.410156 2.90625 C 13.621094 4.257812 16.996094 6.570312 19.535156 9.882812 C 22.074219 13.195312 23.296875 17.117188 23.296875 21.617188 L 23.296875 257.390625 C 23.296875 261.890625 22.042969 265.8125 19.535156 269.125 " clip-rule="nonzero"/></clipPath><clipPath id="117f117c02"><rect x="0" width="82" y="0" height="279"/></clipPath></defs><rect x="-37.5" width="450" fill="#ffffff" y="-37.499999" height="449.999989" fill-opacity="1"/><g clip-path="url(#6d2b844f36)"><g clip-path="url(#1a1e4dcbf5)"><g transform="matrix(1, 0, 0, 1, 149, 48)"><g clip-path="url(#3f99ea5de2)"><g clip-path="url(#17d1b99f81)"><g clip-path="url(#ba9e9406ba)"><rect x="-231.5" width="540" fill="#3e3a39" height="539.999987" y="-130.499998" fill-opacity="1"/></g></g></g></g></g></g><g clip-path="url(#fd3ba2c8ff)"><g clip-path="url(#40587f6ad8)"><g transform="matrix(1, 0, 0, 1, 83, 48)"><g clip-path="url(#117f117c02)"><g clip-path="url(#e26f479a34)"><g clip-path="url(#8fd70f7174)"><rect x="-165.5" width="540" fill="#3e3a39" height="539.999987" y="-130.499998" fill-opacity="1"/></g></g></g></g></g></g></svg>